<?xml version="1.0" encoding="UTF-8" standalone="no"?>
<!DOCTYPE svg PUBLIC "-//W3C//DTD SVG 1.1//EN"
 "http://www.w3.org/Graphics/SVG/1.1/DTD/svg11.dtd">
<!-- Generated by graphviz version 2.47.3 (20210619.1520)
 -->
<!-- Title: dependencies Pages: 1 -->
<svg width="928pt" height="247pt"
 viewBox="0.00 0.00 928.00 246.80" xmlns="http://www.w3.org/2000/svg" xmlns:xlink="http://www.w3.org/1999/xlink">
<g id="graph0" class="graph" transform="scale(1 1) rotate(0) translate(4 242.8)">
<title>dependencies</title>
<polygon fill="white" stroke="transparent" points="-4,4 -4,-242.8 924,-242.8 924,4 -4,4"/>
<text text-anchor="middle" x="460" y="-8.2" font-family="sans-serif" font-size="14.00">dependencies</text>
<g id="clust1" class="cluster">
<title>cluster_AppModule</title>
<polygon fill="none" stroke="black" stroke-dasharray="1,5" points="8,-32.8 8,-230.8 912,-230.8 912,-32.8 8,-32.8"/>
</g>
<g id="clust8" class="cluster">
<title>cluster_AppModule_imports</title>
<polygon fill="none" stroke="black" points="760,-40.8 760,-92.8 904,-92.8 904,-40.8 760,-40.8"/>
</g>
<g id="clust10" class="cluster">
<title>cluster_AppModule_bootstrap</title>
<polygon fill="none" stroke="black" points="403,-170.8 403,-222.8 527,-222.8 527,-170.8 403,-170.8"/>
</g>
<g id="clust2" class="cluster">
<title>cluster_AppModule_declarations</title>
<polygon fill="none" stroke="black" points="16,-40.8 16,-92.8 752,-92.8 752,-40.8 16,-40.8"/>
</g>
<!-- AppComponent -->
<g id="node1" class="node">
<title>AppComponent</title>
<polygon fill="#ffffb3" stroke="black" points="743.94,-84.8 638.06,-84.8 638.06,-48.8 743.94,-48.8 743.94,-84.8"/>
<text text-anchor="middle" x="691" y="-62.6" font-family="Times,serif" font-size="14.00">AppComponent</text>
</g>
<!-- AppModule -->
<g id="node6" class="node">
<title>AppModule</title>
<polygon fill="#8dd3c7" stroke="black" points="506.66,-149.8 503.66,-153.8 482.66,-153.8 479.66,-149.8 423.34,-149.8 423.34,-113.8 506.66,-113.8 506.66,-149.8"/>
<text text-anchor="middle" x="465" y="-127.6" font-family="Times,serif" font-size="14.00">AppModule</text>
</g>
<!-- AppComponent&#45;&gt;AppModule -->
<g id="edge1" class="edge">
<title>AppComponent&#45;&gt;AppModule</title>
<path fill="none" stroke="black" d="M691,-84.82C691,-102.17 691,-125.8 691,-125.8 691,-125.8 516.72,-125.8 516.72,-125.8"/>
<polygon fill="black" stroke="black" points="516.72,-122.3 506.72,-125.8 516.72,-129.3 516.72,-122.3"/>
</g>
<!-- DetalleOfertaComponent -->
<g id="node2" class="node">
<title>DetalleOfertaComponent</title>
<polygon fill="#ffffb3" stroke="black" points="620.5,-84.8 463.5,-84.8 463.5,-48.8 620.5,-48.8 620.5,-84.8"/>
<text text-anchor="middle" x="542" y="-62.6" font-family="Times,serif" font-size="14.00">DetalleOfertaComponent</text>
</g>
<!-- DetalleOfertaComponent&#45;&gt;AppModule -->
<g id="edge2" class="edge">
<title>DetalleOfertaComponent&#45;&gt;AppModule</title>
<path fill="none" stroke="black" d="M485.04,-84.91C485.04,-84.91 485.04,-103.79 485.04,-103.79"/>
<polygon fill="black" stroke="black" points="481.54,-103.79 485.04,-113.79 488.54,-103.79 481.54,-103.79"/>
</g>
<!-- InicioComponent -->
<g id="node3" class="node">
<title>InicioComponent</title>
<polygon fill="#ffffb3" stroke="black" points="444.99,-84.8 331.01,-84.8 331.01,-48.8 444.99,-48.8 444.99,-84.8"/>
<text text-anchor="middle" x="388" y="-62.6" font-family="Times,serif" font-size="14.00">InicioComponent</text>
</g>
<!-- InicioComponent&#45;&gt;AppModule -->
<g id="edge3" class="edge">
<title>InicioComponent&#45;&gt;AppModule</title>
<path fill="none" stroke="black" d="M434.08,-84.91C434.08,-84.91 434.08,-103.79 434.08,-103.79"/>
<polygon fill="black" stroke="black" points="430.58,-103.79 434.08,-113.79 437.58,-103.79 430.58,-103.79"/>
</g>
<!-- NuevaOfertaComponent -->
<g id="node4" class="node">
<title>NuevaOfertaComponent</title>
<polygon fill="#ffffb3" stroke="black" points="312.62,-84.8 159.38,-84.8 159.38,-48.8 312.62,-48.8 312.62,-84.8"/>
<text text-anchor="middle" x="236" y="-62.6" font-family="Times,serif" font-size="14.00">NuevaOfertaComponent</text>
</g>
<!-- NuevaOfertaComponent&#45;&gt;AppModule -->
<g id="edge4" class="edge">
<title>NuevaOfertaComponent&#45;&gt;AppModule</title>
<path fill="none" stroke="black" d="M236,-84.82C236,-102.17 236,-125.8 236,-125.8 236,-125.8 413.26,-125.8 413.26,-125.8"/>
<polygon fill="black" stroke="black" points="413.26,-129.3 423.26,-125.8 413.26,-122.3 413.26,-129.3"/>
</g>
<!-- OfertaComponent -->
<g id="node5" class="node">
<title>OfertaComponent</title>
<polygon fill="#ffffb3" stroke="black" points="141.58,-84.8 24.42,-84.8 24.42,-48.8 141.58,-48.8 141.58,-84.8"/>
<text text-anchor="middle" x="83" y="-62.6" font-family="Times,serif" font-size="14.00">OfertaComponent</text>
</g>
<!-- OfertaComponent&#45;&gt;AppModule -->
<g id="edge5" class="edge">
<title>OfertaComponent&#45;&gt;AppModule</title>
<path fill="none" stroke="black" d="M83,-85.08C83,-106.12 83,-137.8 83,-137.8 83,-137.8 413.03,-137.8 413.03,-137.8"/>
<polygon fill="black" stroke="black" points="413.03,-141.3 423.03,-137.8 413.03,-134.3 413.03,-141.3"/>
</g>
<!-- AppComponent  -->
<g id="node8" class="node">
<title>AppComponent </title>
<polygon fill="#80b1d3" stroke="black" points="519.44,-214.8 410.56,-214.8 410.56,-178.8 519.44,-178.8 519.44,-214.8"/>
<text text-anchor="middle" x="465" y="-192.6" font-family="Times,serif" font-size="14.00">AppComponent </text>
</g>
<!-- AppModule&#45;&gt;AppComponent  -->
<g id="edge7" class="edge">
<title>AppModule&#45;&gt;AppComponent </title>
<path fill="none" stroke="black" stroke-dasharray="1,5" d="M465,-149.91C465,-149.91 465,-168.79 465,-168.79"/>
<polygon fill="black" stroke="black" points="461.5,-168.79 465,-178.79 468.5,-168.79 461.5,-168.79"/>
</g>
<!-- AppRoutingModule -->
<g id="node7" class="node">
<title>AppRoutingModule</title>
<polygon fill="#8dd3c7" stroke="black" points="896.27,-84.8 893.27,-88.8 872.27,-88.8 869.27,-84.8 767.73,-84.8 767.73,-48.8 896.27,-48.8 896.27,-84.8"/>
<text text-anchor="middle" x="832" y="-62.6" font-family="Times,serif" font-size="14.00">AppRoutingModule</text>
</g>
<!-- AppRoutingModule&#45;&gt;AppModule -->
<g id="edge6" class="edge">
<title>AppRoutingModule&#45;&gt;AppModule</title>
<path fill="none" stroke="black" d="M832,-85.08C832,-106.12 832,-137.8 832,-137.8 832,-137.8 516.74,-137.8 516.74,-137.8"/>
<polygon fill="black" stroke="black" points="516.74,-134.3 506.74,-137.8 516.74,-141.3 516.74,-134.3"/>
</g>
</g>
</svg>
