<?xml version="1.0" encoding="UTF-8" standalone="no"?>
<!DOCTYPE svg PUBLIC "-//W3C//DTD SVG 1.1//EN"
 "http://www.w3.org/Graphics/SVG/1.1/DTD/svg11.dtd">
<!-- Generated by graphviz version 2.47.3 (20210619.1520)
 -->
<!-- Title: dependencies Pages: 1 -->
<svg width="928pt" height="247pt"
 viewBox="0.00 0.00 928.00 246.80" xmlns="http://www.w3.org/2000/svg" xmlns:xlink="http://www.w3.org/1999/xlink">
<g id="graph0" class="graph" transform="scale(1 1) rotate(0) translate(4 242.8)">
<title>dependencies</title>
<polygon fill="white" stroke="transparent" points="-4,4 -4,-242.8 924,-242.8 924,4 -4,4"/>
<text text-anchor="middle" x="460" y="-8.2" font-family="sans-serif" font-size="14.00">dependencies</text>
<g id="clust1" class="cluster">
<title>cluster_AppModule</title>
<polygon fill="none" stroke="black" stroke-dasharray="1,5" points="8,-32.8 8,-230.8 912,-230.8 912,-32.8 8,-32.8"/>
</g>
<g id="clust2" class="cluster">
<title>cluster_AppModule_declarations</title>
<polygon fill="none" stroke="black" points="168,-40.8 168,-92.8 904,-92.8 904,-40.8 168,-40.8"/>
</g>
<g id="clust8" class="cluster">
<title>cluster_AppModule_imports</title>
<polygon fill="none" stroke="black" points="16,-40.8 16,-92.8 160,-92.8 160,-40.8 16,-40.8"/>
</g>
<g id="clust10" class="cluster">
<title>cluster_AppModule_bootstrap</title>
<polygon fill="none" stroke="black" points="402,-170.8 402,-222.8 526,-222.8 526,-170.8 402,-170.8"/>
</g>
<!-- AppComponent -->
<g id="node1" class="node">
<title>AppComponent</title>
<polygon fill="#ffffb3" stroke="black" points="895.94,-84.8 790.06,-84.8 790.06,-48.8 895.94,-48.8 895.94,-84.8"/>
<text text-anchor="middle" x="843" y="-62.6" font-family="Times,serif" font-size="14.00">AppComponent</text>
</g>
<!-- AppModule -->
<g id="node6" class="node">
<title>AppModule</title>
<polygon fill="#8dd3c7" stroke="black" points="505.66,-149.8 502.66,-153.8 481.66,-153.8 478.66,-149.8 422.34,-149.8 422.34,-113.8 505.66,-113.8 505.66,-149.8"/>
<text text-anchor="middle" x="464" y="-127.6" font-family="Times,serif" font-size="14.00">AppModule</text>
</g>
<!-- AppComponent&#45;&gt;AppModule -->
<g id="edge1" class="edge">
<title>AppComponent&#45;&gt;AppModule</title>
<path fill="none" stroke="black" d="M843,-85.08C843,-106.12 843,-137.8 843,-137.8 843,-137.8 516.01,-137.8 516.01,-137.8"/>
<polygon fill="black" stroke="black" points="516.01,-134.3 506.01,-137.8 516.01,-141.3 516.01,-134.3"/>
</g>
<!-- DetalleOfertaComponent -->
<g id="node2" class="node">
<title>DetalleOfertaComponent</title>
<polygon fill="#ffffb3" stroke="black" points="772.5,-84.8 615.5,-84.8 615.5,-48.8 772.5,-48.8 772.5,-84.8"/>
<text text-anchor="middle" x="694" y="-62.6" font-family="Times,serif" font-size="14.00">DetalleOfertaComponent</text>
</g>
<!-- DetalleOfertaComponent&#45;&gt;AppModule -->
<g id="edge2" class="edge">
<title>DetalleOfertaComponent&#45;&gt;AppModule</title>
<path fill="none" stroke="black" d="M694,-84.82C694,-102.17 694,-125.8 694,-125.8 694,-125.8 515.92,-125.8 515.92,-125.8"/>
<polygon fill="black" stroke="black" points="515.92,-122.3 505.92,-125.8 515.92,-129.3 515.92,-122.3"/>
</g>
<!-- InicioComponent -->
<g id="node3" class="node">
<title>InicioComponent</title>
<polygon fill="#ffffb3" stroke="black" points="596.99,-84.8 483.01,-84.8 483.01,-48.8 596.99,-48.8 596.99,-84.8"/>
<text text-anchor="middle" x="540" y="-62.6" font-family="Times,serif" font-size="14.00">InicioComponent</text>
</g>
<!-- InicioComponent&#45;&gt;AppModule -->
<g id="edge3" class="edge">
<title>InicioComponent&#45;&gt;AppModule</title>
<path fill="none" stroke="black" d="M494.42,-84.91C494.42,-84.91 494.42,-103.79 494.42,-103.79"/>
<polygon fill="black" stroke="black" points="490.92,-103.79 494.42,-113.79 497.92,-103.79 490.92,-103.79"/>
</g>
<!-- NuevaOfertaComponent -->
<g id="node4" class="node">
<title>NuevaOfertaComponent</title>
<polygon fill="#ffffb3" stroke="black" points="464.62,-84.8 311.38,-84.8 311.38,-48.8 464.62,-48.8 464.62,-84.8"/>
<text text-anchor="middle" x="388" y="-62.6" font-family="Times,serif" font-size="14.00">NuevaOfertaComponent</text>
</g>
<!-- NuevaOfertaComponent&#45;&gt;AppModule -->
<g id="edge4" class="edge">
<title>NuevaOfertaComponent&#45;&gt;AppModule</title>
<path fill="none" stroke="black" d="M443.49,-84.91C443.49,-84.91 443.49,-103.79 443.49,-103.79"/>
<polygon fill="black" stroke="black" points="439.99,-103.79 443.49,-113.79 446.99,-103.79 439.99,-103.79"/>
</g>
<!-- OfertaComponent -->
<g id="node5" class="node">
<title>OfertaComponent</title>
<polygon fill="#ffffb3" stroke="black" points="293.58,-84.8 176.42,-84.8 176.42,-48.8 293.58,-48.8 293.58,-84.8"/>
<text text-anchor="middle" x="235" y="-62.6" font-family="Times,serif" font-size="14.00">OfertaComponent</text>
</g>
<!-- OfertaComponent&#45;&gt;AppModule -->
<g id="edge5" class="edge">
<title>OfertaComponent&#45;&gt;AppModule</title>
<path fill="none" stroke="black" d="M235,-84.82C235,-102.17 235,-125.8 235,-125.8 235,-125.8 412.26,-125.8 412.26,-125.8"/>
<polygon fill="black" stroke="black" points="412.26,-129.3 422.26,-125.8 412.26,-122.3 412.26,-129.3"/>
</g>
<!-- AppComponent  -->
<g id="node8" class="node">
<title>AppComponent </title>
<polygon fill="#80b1d3" stroke="black" points="518.44,-214.8 409.56,-214.8 409.56,-178.8 518.44,-178.8 518.44,-214.8"/>
<text text-anchor="middle" x="464" y="-192.6" font-family="Times,serif" font-size="14.00">AppComponent </text>
</g>
<!-- AppModule&#45;&gt;AppComponent  -->
<g id="edge7" class="edge">
<title>AppModule&#45;&gt;AppComponent </title>
<path fill="none" stroke="black" stroke-dasharray="1,5" d="M464,-149.91C464,-149.91 464,-168.79 464,-168.79"/>
<polygon fill="black" stroke="black" points="460.5,-168.79 464,-178.79 467.5,-168.79 460.5,-168.79"/>
</g>
<!-- AppRoutingModule -->
<g id="node7" class="node">
<title>AppRoutingModule</title>
<polygon fill="#8dd3c7" stroke="black" points="152.27,-84.8 149.27,-88.8 128.27,-88.8 125.27,-84.8 23.73,-84.8 23.73,-48.8 152.27,-48.8 152.27,-84.8"/>
<text text-anchor="middle" x="88" y="-62.6" font-family="Times,serif" font-size="14.00">AppRoutingModule</text>
</g>
<!-- AppRoutingModule&#45;&gt;AppModule -->
<g id="edge6" class="edge">
<title>AppRoutingModule&#45;&gt;AppModule</title>
<path fill="none" stroke="black" d="M88,-85.08C88,-106.12 88,-137.8 88,-137.8 88,-137.8 412.32,-137.8 412.32,-137.8"/>
<polygon fill="black" stroke="black" points="412.32,-141.3 422.32,-137.8 412.32,-134.3 412.32,-141.3"/>
</g>
</g>
</svg>
